<?xml version="1.0" encoding="UTF-8"?>
<svg id="Layer_1" data-name="Layer 1" xmlns="http://www.w3.org/2000/svg" viewBox="0 0 720 720">
  <defs>
    <style>
      .cls-1 {
        fill: none;
        stroke: #000;
        stroke-linecap: round;
        stroke-linejoin: round;
        stroke-width: 10px;
      }
    </style>
  </defs>
  <path class="cls-1" d="M469,157.36c.05,2.24,.16,16.06-10.95,26.73-10.36,9.96-23,10-25.45,9.95,2-.08,17.11-.44,27.87,11.8,9.54,10.85,8.72,23.71,8.53,26.02-.17-2.32-.92-15.17,8.67-25.88,11.2-12.5,27.02-11.52,28.87-11.38-2.56-.03-16.01-.43-26.73-11.38-10.23-10.45-10.76-23.14-10.81-25.88Z"/>
  <path class="cls-1" d="M323.52,442.34l7.04,35.93c1.16,5.95,.38,12.17-2.53,17.48-1.64,3-4.02,5.84-7.45,7.56-10.23,5.13-27.09-1.07-34.59-17.88"/>
  <path class="cls-1" d="M338.88,562.64l7.06-42.92c1.84-11.17,11.49-19.36,22.81-19.36,4.96,.61,11.81,.56,18.77-2.56,14.32-6.42,23.24-23.21,23.04-42.66-7.22-.44-17.35-2.23-26.08-9.1-9.54-7.5-7.37-13.75-15.46-21.75-15.63-15.44-44.42-14.68-68.1-8.83-5.49,1.36-9.05,4.96-11.52,6.83"/>
  <circle class="cls-1" cx="357.44" cy="454.71" r="2.56"/>
  <path class="cls-1" d="M285.98,562.64v-125.73c0-27.02,13.95-52.36,37.23-66.06,11.09-6.52,23.9-10.29,37.42-10.42,15.79-.15,30.68,4.66,43.07,13.06,20.91,14.18,33.08,38.1,33.08,63.36v125.79"/>
  <polyline class="cls-1" points="175.06 356.59 360 197.25 544.94 356.59"/>
  <path class="cls-1" d="M203.3,332.26v217.58c0,7.07,5.73,12.8,12.8,12.8H505.26c7.07,0,12.8-5.73,12.8-12.8v-216.41"/>
</svg>