<?xml version="1.0" encoding="UTF-8"?>
<svg id="Layer_1" data-name="Layer 1" xmlns="http://www.w3.org/2000/svg" viewBox="0 0 720 720">
  <defs>
    <style>
      .cls-1 {
        fill: none;
        stroke: #000;
        stroke-linecap: round;
        stroke-linejoin: round;
        stroke-width: 10px;
      }
    </style>
  </defs>
  <path class="cls-1" d="M218.18,253.94l-43.4,55.66-17.36,64.34c-.76,9.58-8.9,16.98-18.38,16.85-9.3-.13-17.13-7.46-17.87-16.85,4.26-29.28,8.51-58.55,12.77-87.83l62.3-78.13c1.25-1.36,14.63-15.37,34.72-12.77,22.02,2.86,31.21,22.97,31.66,24,10.89,27.4,21.79,54.81,32.68,82.21l54.64,13.28c11.54,3.35,17.48,15.62,13.79,25.53-3.18,8.54-13,13.93-22.98,11.74-22.98-5.11-45.96-10.21-68.94-15.32-1.83-1.06-4.76-3.1-7.15-6.64-4.2-6.22-3.79-12.76-3.57-14.81,.85-10.89,1.7-21.79,2.55-32.68l-6.64,99.06c15.49,31.83,30.98,63.66,46.47,95.49,9.36,34.38,18.72,68.77,28.09,103.15,18.16,.49,31.43,6.59,32.68,13.79,.81,4.68-1.52,9.04-1.52,9.04-2.06,3.86-5.35,5.65-6.65,6.28-13.23,3.92-26.46,7.83-39.69,11.75-5.85,1.73-12.06-1.3-14.29-6.99l-47.12-120.17-65.87-93.45c-1.61-3.01-3.35-6.95-4.6-11.74-1.88-7.23-1.89-13.53-1.53-17.87,1.19-23.49,2.38-46.98,3.57-70.47"/>
  <path class="cls-1" d="M186.52,401l-20.94,78.64-60.29,86.26c-4.95,7.08-4.02,16.71,2.19,22.71l34.1,32.97c7.37,3,15.49,.67,19.4-5.08,4.44-6.54,1.25-14.27,1.02-14.81l-12.77-19.4,61.79-78.13c6.09-15.53,12.18-31.06,18.27-46.6"/>
  <line class="cls-1" x1="182.94" y1="370.87" x2="257.7" y2="370.87"/>
  <path class="cls-1" d="M460.22,527.64c-1.19,2.95-2.39,5.89-3.58,8.84-3.32,8.21-9.46,18.94-16.85,23.84l-33.7,18.89c.68,8,1.36,16,2.04,24,8.26,.15,13.27,6.72,12.41,11.28-.71,3.79-5.68,7.35-11.9,7.08h-10.89c-3.84,0-7.22-2.53-8.3-6.21l-12.44-42.34c-1.3-4.43-.31-9.21,2.63-12.76l11.31-13.63c2.54-3.06,4.11-6.8,4.51-10.75l2.44-23.93c.5-3.56,2.65-15.68,13.28-25.67,11.14-10.47,24.11-11.56,27.57-11.74h54.13c5.59,.41,16.14,.36,26.84-5.42,9.85-5.32,14.89-12.83,20.65-21.65,5.15-7.89,12.28-20.94,16.34-39.24v-35.32l19.4,21.45,6.13-26.55,11.74,20.94c1.88,.14,3.75,.27,5.63,.41,9.48,.69,17.87,6.37,22.04,14.92,1.16,2.38,2.32,4.76,3.48,7.14,11.74,.85,23.49,1.7,35.23,2.55-.54,4.62-1.08,9.23-1.62,13.85-1.73,14.8-13.68,26.32-28.54,27.5l-6.6,.52c-2.18-.42-5.7-.75-9.62,.5-9.86,3.14-13.24,13.41-13.63,14.65-1.04,3.03-2.51,7.68-3.84,13.45-2.72,11.83-2.89,19.97-3.36,24.18-.95,8.5-5.31,20.63-21.13,35.44l-22.98,59.88c3.43,3.06,4.63,7.79,3.06,11.74-1.85,4.65-6.62,5.97-7.15,6.1h-14.81c-1.07-.4-5.16-2.07-7.66-6.61-2.4-4.37-1.75-8.55-1.53-9.7l17.36-58.72"/>
  <path class="cls-1" d="M568.13,554.06l37.36,44.38c1.36,1.62,2.13,3.62,2.36,5.72,.76,7,5.88,12.28,11.18,12.85,5,.54,10.62-3.07,13.08-8.87,1.51-3.58,1.07-7.69-1.05-10.95-15.08-23.13-30.17-46.26-45.25-69.38"/>
  <path class="cls-1" d="M432.01,564.69l26.17,58.2h22.98c4.36-2.07,7.01-6.34,6.64-10.44-.5-5.47-6.37-10.22-13.27-9.23-3.4-9.02-6.81-18.04-10.21-27.06,4.04-4.29,9.49-11.21,13.28-20.94,1.91-4.91,2.97-9.45,3.57-13.28"/>
  <path class="cls-1" d="M400.74,501.59c-21.82-6.32-36.33-24.02-36.25-42.35,.06-14.22,8.87-24.34,11.98-27.6-.15,4.58-.02,18.21,9.21,31.66,9.97,14.52,24.04,19.36,28.25,20.63"/>
  <line class="cls-1" x1="457.35" y1="536.96" x2="535.16" y2="553.68"/>
  <path class="cls-1" d="M598.32,477.33c-8.86-1.49-21.39-4.66-34.95-11.86-10.26-5.45-18.11-11.63-23.76-16.81-13.52,2.58-35.71,4.81-61.18-2.21-10.34-2.85-41.35-11.38-62.98-38.13-13.23-16.36-15.67-30.53-37.11-50.72-6.59-6.21-12.57-10.71-16.62-13.57"/>
  <circle class="cls-1" cx="252.6" cy="133.69" r="44.32"/>
  <circle class="cls-1" cx="607.48" cy="419.76" r="1.83"/>
</svg>