<?xml version="1.0" encoding="UTF-8"?>
<svg id="Layer_1" data-name="Layer 1" xmlns="http://www.w3.org/2000/svg" viewBox="0 0 720 720">
  <defs>
    <style>
      .cls-1 {
        stroke-width: 9.74px;
      }

      .cls-1, .cls-2, .cls-3 {
        fill: none;
        stroke: #000;
        stroke-linecap: round;
        stroke-linejoin: round;
      }

      .cls-2 {
        stroke-width: 10px;
      }

      .cls-3 {
        stroke-width: 12.37px;
      }
    </style>
  </defs>
  <path class="cls-2" d="M209.33,360c-6.67,20.82-7.9,19.52-26.89,47.64-11.79,17.46-24.09,31.65-35.23,42.89,19.91,23.73,67.45,73.53,145.53,97.28,42.66,12.98,80.39,13.9,106.47,12.26-16.09-113.36-6.07-155.52,18.38-173.11,40.1-28.84,91.91,21.27,144.53-25.67,16.12-14.39,26.48-56.66,20.15-71.61-8.43-19.91-76.6-9.19-102-37.38-16.39-18.18-12.89-28.75-31.28-47.64-38.17-39.23-119.71-50.66-166.98-17.87-18.25,12.66-31.15,26.55-44.94,56.94-10.74,23.68-15.14,35.14-17.11,45.19-1.95,9.98-2.65,18.94-2.53,26.62,.16,9.63,5.29,18.48,13.48,23.53,9.75,6.01,19.63,12.02,29.64,18.02,18.06,10.84,35.94,21.3,53.62,31.4,3.31,1.36,22.07,8.71,38.3-.77,12.68-7.4,16.72-20.93,18.38-26.81,8.42-29.76-11.02-48.5-19.91-94.98-3.65-19.06-4.06-35.18-3.83-45.96"/>
  <path class="cls-2" d="M582.66,319.68c-15.1,.87-27.24-6.5-29.87-16.34-1.25-4.68-1.07-12.6,4.71-17.65,4.97-4.34,12.49-5.19,19.13-2.1"/>
  <ellipse class="cls-3" cx="433.04" cy="254.06" rx="3.7" ry="7.02"/>
  <line class="cls-1" x1="226.95" y1="334.67" x2="259.64" y2="273.85"/>
  <line class="cls-1" x1="252.2" y1="350.16" x2="284.89" y2="289.34"/>
  <line class="cls-1" x1="277.45" y1="365.65" x2="310.14" y2="304.84"/>
  <line class="cls-1" x1="302.7" y1="381.14" x2="335.38" y2="320.33"/>
</svg>