<?xml version="1.0" encoding="UTF-8"?>
<svg id="Layer_1" data-name="Layer 1" xmlns="http://www.w3.org/2000/svg" viewBox="0 0 720 720">
  <defs>
    <style>
      .cls-1 {
        fill: none;
        stroke: #000;
        stroke-linecap: round;
        stroke-linejoin: round;
        stroke-width: 10px;
      }
    </style>
  </defs>
  <path class="cls-1" d="M129.26,229.27l24.41,5.58c8.3,1.9,16.97,1.37,24.98-1.5l53.08-19.08c5.38-1.93,10.65-4.19,15.77-6.75l77.6-38.8c4.36-2.18,11.9-3.96,16.77-3.96h0c5.97,0,10.28,4.85,9.58,10.78l-.34,2.84c-2.41,20.03-23.18,32.96-37.67,39.62-26.34,12.12-23.63,14.88-29.28,18.79-26.5,18.36-31.59,31.51-56.54,54.74-7.8,7.26-20.52,18.4-35.86,29.17-8.46,5.94-19.09,7.93-29.15,5.59-10.67-2.48-20.9-5.4-32.37-7.07"/>
  <path class="cls-1" d="M329.91,166.85l62.51-38.38c6.17-3.24,13.67-1.92,18.07,3.01,3.85,4.32,4.72,10.73,2.15,16.18-9.38,8.44-22.6,18.39-40.02,26.42-7.92,3.65-15.44,6.32-22.26,8.29"/>
  <path class="cls-1" d="M284.17,236.8c1.54-.46,12.19-3.48,19.62,2.68,4.15,3.44,6.16,8.8,6.02,12.05-.67,15.64-53.05,25.9-71.13,29.12"/>
  <path class="cls-1" d="M345.95,556.16c26.02-107.39-70.28-138.41-64.97-197.93,1.5-12.15,3.69-37.2,35.96-54.58,.3-.16,.69-.12,.95,.1,33.48,28.42,58.3,39.01,76.25,38.13,13.22-.65,19.03-4.3,32.27-4.73,31.18-1.01,56.8,17.41,73.58,33.13"/>
  <path d="M489.07,385.21c-2.6,6.56-5.61,12.96-9.05,19.13-.29,.52-3.49,5.72-3.4,5.81,0,0,.64-1.02,.24-.39-.17,.27-.33,.53-.5,.8-.3,.47-.6,.94-.9,1.41-.66,1.02-1.33,2.03-2.02,3.03-2.49,3.66-5.11,7.22-7.81,10.72-10.11,13.14-21.62,25.35-30.6,39.34-6.22,9.69-11.14,21.94-7.63,33.54,1.61,5.3,4.9,10.4,10.05,12.75,3.37,1.54,7.44,1.59,11.06,1.37,4.47-.27,8.91-1.03,13.34-1.66,7.2-1.03,14.42-1.97,21.66-2.71,8.01-.81,16-1.25,24.05-1.15,6.04,.08,12.09,.43,18.13,.19s12.31-1.37,18.03-3.83,11.16-6.68,15.08-11.5c5.92-7.27,5.52-17.09,3.41-25.71-2.6-10.62-7.57-20.66-12.53-30.33-5.05-9.85-10.59-19.44-15.68-29.26-1.09-2.1-2.15-4.21-3.16-6.34l.64,1.35c-2.27-4.79-4.78-10-5.24-15.36l.12,1.49c-.33-4.15-1-7.77-2.89-11.53-2.45-4.88-7.24-8.4-12.43-9.93-1.88-.55-3.67-.69-5.6-.17-1.67,.45-3.71,1.51-4.76,2.95-.88,1.21-1.65,2.8-1.14,4.34,.49,1.45,1.65,2.75,3.16,3.19,.83,.25,1.65,.53,2.45,.89,.24,.11,.54,.33,.8,.39-.26-.05-1.17-.69-.44-.22,.51,.34,1.02,.66,1.5,1.04,.22,.18,.43,.38,.66,.55,.64,.47-.66-.76-.18-.2,.38,.43,.76,.86,1.11,1.32,.65,.87,1.19,1.81,1.66,2.78l-.64-1.35c1.13,2.46,1.71,5.08,1.94,7.76l-.12-1.49c.26,3.33,.86,6.34,2,9.48,1.44,3.97,3.27,7.79,5.14,11.57,4.27,8.64,9.06,17.02,13.62,25.51,2.72,5.06,5.37,10.15,7.84,15.33l-.64-1.35c4.3,9.04,8.61,18.78,9.42,28.88l-.12-1.49c.12,1.67,.14,3.35-.03,5.01-.08,.79-.2,1.58-.37,2.36-.04,.18-.08,.35-.12,.52-.2,.9,.34-1.13,.21-.78s-.22,.73-.35,1.08c-.26,.7-.56,1.39-.92,2.05-.08,.15-.17,.3-.25,.45-.38,.73,.98-1.48,.5-.8-.23,.33-.45,.67-.7,.98-.61,.79-1.31,1.5-2.01,2.21-.1,.1-.21,.26-.33,.33-.14,.09,1.23-1.17,.71-.69-.26,.24-.51,.48-.78,.72-.47,.43-.95,.84-1.44,1.24-.93,.76-1.91,1.43-2.9,2.12-.39,.27,1.77-1.07,.71-.44-.23,.13-.45,.27-.68,.39-.48,.27-.98,.53-1.47,.78-.45,.22-.91,.43-1.37,.63-.27,.11-.54,.21-.81,.33-.67,.3,1.58-.56,1.32-.49-.16,.04-.31,.12-.47,.17-.98,.33-1.96,.63-2.97,.88-.52,.13-1.05,.24-1.58,.35-.25,.05-.49,.09-.74,.14-1.01,.19,2.23-.34,.88-.15-1.11,.15-2.22,.28-3.33,.37-2.33,.18-4.67,.23-7.01,.22-5.5-.02-11-.27-16.5-.28-7.17-.01-14.3,.47-21.43,1.19-6.41,.65-12.81,1.46-19.19,2.36-4.27,.6-8.54,1.29-12.83,1.74-1.48,.16-2.96,.28-4.45,.3-.3,0-.6,0-.9,0-.98,0,1.8,.1,1.32,.05-.16-.02-.32-.02-.48-.03-.55-.04-1.1-.11-1.65-.21-.12-.02-.23-.05-.35-.07-.88-.15,1.31,.36,1.25,.32-.22-.12-.52-.15-.75-.24-.21-.08-.4-.16-.61-.25-1.14-.47,1.13,.7,.72,.4-.38-.27-.76-.52-1.13-.81-.08-.07-.16-.15-.24-.22-.58-.46,.98,1.04,.76,.76-.26-.33-.57-.64-.84-.96-1-1.23-1.83-2.57-2.53-3.99l.64,1.35c-1.16-2.47-1.8-5.09-2.02-7.81l.12,1.49c-.24-3.58,.44-6.84,1.07-10.32,0,.03-.43,1.5-.17,.62,.05-.18,.11-.37,.16-.55,.11-.36,.22-.72,.34-1.08,.22-.68,.46-1.35,.71-2.02,.44-1.18,.93-2.33,1.47-3.47,.37-.78,.76-1.56,1.18-2.31,.16-.29,.33-.58,.5-.87,.25-.41,1.16-1.76,.09-.17,.31-.46,.59-.94,.89-1.4,2.29-3.55,4.78-6.98,7.35-10.33,12.03-15.71,25.47-30.26,35.85-47.19,4.86-7.93,9.02-16.28,12.44-24.93,1.31-3.32-1.26-6.22-4.58-6.59s-8.11,1.07-9.51,4.6h0Z"/>
  <line class="cls-1" x1="530.97" y1="503.11" x2="533.34" y2="554.76"/>
  <path class="cls-1" d="M297.18,318.59c3,3.58,6.01,7.17,9.01,10.75,5.31,6.34,15.19,5.95,19.99-.79l8.29-11.65"/>
  <path d="M435.23,383.94c-.97-5.81,1.33-20.93-7.73-25.46-3.85-1.92-7.78-1.02-9.26-.68-7.42,1.69-13.98,8.88-13.55,16.24,.28,4.78,3.4,7.97,6.24,10.86,6.09,6.21,16.88,11.96,21.73,8.28,2.05-1.56,3.41-4.28,2.58-9.25Z"/>
</svg>