<?xml version="1.0" encoding="UTF-8"?>
<svg id="Layer_1" data-name="Layer 1" xmlns="http://www.w3.org/2000/svg" viewBox="0 0 720 720">
  <defs>
    <style>
      .cls-1 {
        fill: #231f20;
        stroke-width: 13.3px;
      }

      .cls-1, .cls-2, .cls-3, .cls-4 {
        stroke: #231f20;
        stroke-linecap: round;
        stroke-linejoin: round;
      }

      .cls-2 {
        stroke-width: 10.05px;
      }

      .cls-2, .cls-3, .cls-4 {
        fill: none;
      }

      .cls-3 {
        stroke-width: 10px;
      }

      .cls-5 {
        fill: #2d2d2d;
      }

      .cls-4 {
        stroke-width: 10.78px;
      }
    </style>
  </defs>
  <path class="cls-3" d="M205.94,190.96c-11.4-4.21-23.9-2-32.17,5.78-8.68,8.16-9.15,19.11-9.19,21.45v78.6c0,1.05,.04,2.09,.14,3.13,4.13,42.77,37.7,76.15,77.48,79.63,44.81,3.92,87.63-30.98,92.77-79.49,.12-1.13,.16-2.26,.16-3.4v-73.05c0-10.11-4.34-19.86-12.23-26.18-.38-.31-.77-.61-1.18-.9-13.31-9.75-28.4-6.11-30.51-5.56"/>
  <path class="cls-2" d="M249.85,379.84v80.52c0,9.46,1.17,18.9,3.83,27.99,11.79,40.35,47.38,70.01,88.52,72.99,30.67,2.22,60.18-10.69,80.53-32.87,17.48-19.06,26.78-44.11,26.78-69.85v-33.1"/>
  <line class="cls-3" x1="445.15" y1="489.83" x2="477.89" y2="489.83"/>
  <ellipse class="cls-1" cx="209.94" cy="189.85" rx="13.53" ry="10.3"/>
  <ellipse class="cls-1" cx="289.77" cy="189.85" rx="13.53" ry="10.3"/>
  <circle class="cls-1" cx="512.1" cy="485.89" r="2.17"/>
  <circle class="cls-4" cx="512.1" cy="485.89" r="33.7"/>
  <path class="cls-4" d="M337.75,265.43h67.4v-67.15c0-5.31,4.31-9.62,9.62-9.62h70.64c5.31,0,9.61,4.31,9.61,9.62v67.15h64.89c5.53,0,10.01,4.48,10.01,10.01v69.86c0,5.52-4.48,10-10.01,10h-64.89v57.79c0,5.31-4.3,9.61-9.61,9.61h-70.64c-5.31,0-9.62-4.3-9.62-9.61v-57.79h-78.84c-4.35,0-8.06-2.78-9.43-6.65"/>
  <g>
    <ellipse class="cls-5" cx="418.79" cy="302.89" rx="9.9" ry="13.03" transform="translate(-90.41 214.32) rotate(-26.01)"/>
    <ellipse class="cls-5" cx="483.51" cy="302.89" rx="13.03" ry="9.9" transform="translate(-6.23 595.6) rotate(-62.93)"/>
    <ellipse class="cls-5" cx="438.02" cy="283.96" rx="9.9" ry="14.47" transform="translate(-47.83 93.05) rotate(-11.5)"/>
    <ellipse class="cls-5" cx="464.55" cy="283.96" rx="14.47" ry="9.9" transform="translate(109.03 696.32) rotate(-80.67)"/>
    <path class="cls-5" d="M423.31,337.17c-1.56-4.23-.48-8.08,0-9.7,1.22-4.13,3.02-4.67,10.42-13.61,4.51-5.44,5.01-6.65,7.82-8.69,2.45-1.78,5.43-3.94,9.56-4.05,5.84-.16,10.12,3.9,12.2,5.89,1.7,1.62,1.45,1.84,5.61,7.72,5.69,8.05,7.22,9.11,8.83,13.32,1.19,3.11,2.08,5.42,1.45,8.25-1.08,4.83-5.91,8.21-10.13,9.37-6.61,1.82-8.34-2.69-17.23-2.86-9.98-.18-12.57,5.43-19.55,3.04-.31-.11-6.66-2.39-8.98-8.69Z"/>
  </g>
</svg>