<?xml version="1.0" encoding="UTF-8"?>
<svg version="1.1" xmlns="http://www.w3.org/2000/svg" width="2160" height="2160">
<path d="M0 0 C1.74972529 -0.01612378 3.49949389 -0.02758938 5.24926758 -0.03710938 C6.22366287 -0.0439978 7.19805817 -0.05088623 8.20198059 -0.0579834 C27.02578313 0.33210255 44.98126484 11.48753664 57.625 24.625 C70.80183987 39.80751815 76.33190323 57.83169533 76.24050903 77.68629456 C76.24138237 79.06349658 76.24313569 80.44069828 76.24568737 81.81789821 C76.25013983 85.58292964 76.24218629 89.34784636 76.23213124 93.11286318 C76.22346861 97.1802275 76.22641889 101.24758571 76.22793579 105.31495667 C76.22898287 112.35552558 76.22272483 119.39605733 76.21146011 126.4366169 C76.19518399 136.61599286 76.18999495 146.79535091 76.18748413 156.97473847 C76.18311034 173.49138856 76.16980982 190.00801886 76.15087891 206.5246582 C76.13251193 222.56599834 76.11835942 238.6073331 76.10986328 254.64868164 C76.10933783 255.63799966 76.10881239 256.62731768 76.10827102 257.64661504 C76.10566088 262.60989095 76.10313348 267.5731669 76.10064721 272.53644288 C76.07992456 313.69097568 76.04470763 354.84548671 76 396 C77.0321463 395.58300842 78.0642926 395.16601685 79.12771606 394.73638916 C80.49412788 394.18648189 81.86057463 393.63666142 83.22705078 393.08691406 C83.90588821 392.8123941 84.58472565 392.53787415 85.28413391 392.2550354 C104.85215382 384.39392668 125.22461491 383.68609448 146.02734375 383.734375 C148.11226954 383.73302294 150.19719502 383.73107795 152.28211975 383.72857666 C156.62455281 383.72565015 160.96690286 383.72984213 165.30932617 383.73925781 C170.82358644 383.75064356 176.33765174 383.74408242 181.85190487 383.73211288 C186.14951496 383.72482082 190.44708027 383.72721571 194.74469185 383.73236847 C196.77568142 383.73368512 198.80667532 383.7321285 200.83765984 383.72740936 C216.43704248 383.69910507 232.36213923 383.90461851 247.5 388.125 C248.27569336 388.33672852 249.05138672 388.54845703 249.85058594 388.76660156 C269.87145671 394.52270311 287.74591682 404.93223567 303 419 C303.94617187 419.86367187 304.89234375 420.72734375 305.8671875 421.6171875 C322.48494174 437.48172908 333.31029908 457.16508785 340 479 C340.31710937 480.02351563 340.63421875 481.04703125 340.9609375 482.1015625 C345.22069509 497.41138435 345.29620241 513.45766915 345.25878906 529.22485352 C345.26150728 531.18019744 345.26507282 533.13554034 345.26940918 535.09088135 C345.27843615 540.34494764 345.27502959 545.59893436 345.26865101 550.85300183 C345.26354102 556.38498964 345.26829615 561.91697123 345.27142334 567.44895935 C345.27504824 576.73283088 345.2703025 586.01667045 345.26074219 595.30053711 C345.2498573 605.99333334 345.25338947 616.68605327 345.264395 627.37884766 C345.27350628 636.60488423 345.27473455 645.83089801 345.26951766 655.05693763 C345.26641941 660.54743221 345.26592907 666.03789106 345.27259064 671.52838326 C345.2784198 676.69221141 345.27426663 681.85594234 345.26280212 687.01976013 C345.26018519 688.90093767 345.26086898 690.78212357 345.26532745 692.66329765 C345.29701055 707.40417529 344.80678384 722.21065991 340.8125 736.5 C340.48995239 737.67526245 340.48995239 737.67526245 340.16088867 738.87426758 C334.79614365 757.68209855 325.82763495 774.20644398 313 789 C312.26523438 789.87914062 311.53046875 790.75828125 310.7734375 791.6640625 C289.85791083 815.84976923 258.56430691 830.68134278 227 834 C218.68818801 834.51651372 210.35524889 834.42379827 202.03125 834.3984375 C199.65628979 834.40046478 197.28133018 834.40338161 194.90637207 834.40713501 C189.95786543 834.41152762 185.00952257 834.40522689 180.06103516 834.39111328 C173.76764125 834.37402355 167.4746314 834.38388129 161.18125153 834.40183067 C156.28571765 834.41275184 151.39027249 834.40918424 146.49473572 834.4014473 C144.17626396 834.39946824 141.85778374 834.40182229 139.5393219 834.40888596 C122.4217383 834.44961309 105.87932456 833.61622888 89.5625 827.9375 C88.69689453 827.64077393 87.83128906 827.34404785 86.93945312 827.03833008 C72.1585726 821.75349343 58.90612836 814.20747916 47 804 C46.48888672 803.56574707 45.97777344 803.13149414 45.45117188 802.68408203 C23.17173323 783.60435 7.12832133 757.05349792 2 728 C1.83298651 727.11367494 1.66597302 726.22734988 1.49389851 725.31416649 C-0.59265631 712.36376919 -0.27731608 699.33662531 -0.24453239 686.25435242 C-0.23760217 682.59161852 -0.24241723 678.92889588 -0.24568737 675.26615947 C-0.24981706 668.85850881 -0.24657784 662.45089544 -0.23841095 656.04324913 C-0.22630114 646.51543868 -0.22574302 636.98765157 -0.22749493 627.45983483 C-0.23011806 611.42966816 -0.22345765 595.39951802 -0.21146011 579.36935616 C-0.19961587 563.5032601 -0.19192616 547.63717093 -0.18975449 531.77107048 C-0.18961701 530.78363632 -0.18947953 529.79620216 -0.18933788 528.77884575 C-0.18866119 523.76392812 -0.18805843 518.74901047 -0.18748413 513.73409282 C-0.18328612 478.23670499 -0.16981926 442.73932614 -0.15087891 407.24194336 C-0.13250276 372.76212614 -0.1183391 338.28231138 -0.10986328 303.80249023 C-0.10960023 302.73920126 -0.10933718 301.67591229 -0.10906615 300.58040244 C-0.10642906 289.90217261 -0.10387744 279.22394276 -0.10138843 268.54571289 C-0.09631635 246.79397916 -0.09067385 225.04224558 -0.08468628 203.29051208 C-0.0844117 202.29045783 -0.08413712 201.29040358 -0.08385422 200.26004465 C-0.06546071 133.5066927 -0.03377122 66.75334573 0 0 Z M120.625 469.75 C119.96564453 470.09289063 119.30628906 470.43578125 118.62695312 470.7890625 C112.85971947 473.88450231 107.83141089 477.57921535 103 482 C102.31808594 482.59039063 101.63617187 483.18078125 100.93359375 483.7890625 C85.51970935 497.96621645 78.35629925 518.57095242 77 539 C76.86143028 543.64648968 76.85305615 548.28989964 76.85473633 552.93823242 C76.85173654 554.30304047 76.84833216 555.66784768 76.84455872 557.03265381 C76.835797 560.70858394 76.83338391 564.38449072 76.83274293 568.06043029 C76.83202786 570.36638802 76.82988496 572.67233999 76.82724571 574.97829628 C76.81801758 583.04974361 76.81390757 591.12117452 76.81469727 599.19262695 C76.81529709 606.67305062 76.80475736 614.15340197 76.7889536 621.63380736 C76.775804 628.09197866 76.77051647 634.55012654 76.77115268 641.00831109 C76.77140553 644.84953732 76.76867372 648.69069917 76.75797462 652.53191185 C76.68518861 680.65292169 76.89880842 706.3859456 96 729 C96.67095703 729.88751953 96.67095703 729.88751953 97.35546875 730.79296875 C108.62710807 745.2378555 127.41241641 753.45298012 145.05102539 756.53271484 C149.86465155 757.10231487 154.59458774 757.18134263 159.4375 757.203125 C160.43523437 757.20882507 161.43296875 757.21452515 162.4609375 757.22039795 C164.568837 757.22981409 166.67675099 757.23636841 168.78466797 757.24023438 C171.96218596 757.24988515 175.13904121 757.2809188 178.31640625 757.3125 C203.96941184 757.447731 225.93350753 752.19085835 244.8125 733.6875 C250.11572596 728.29959024 254.43015762 722.69714232 258 716 C258.45761719 715.15308594 258.91523437 714.30617188 259.38671875 713.43359375 C265.83382113 700.44258565 267.6034746 687.05632269 267.51757812 672.75 C267.52301727 671.19725901 267.53014984 669.64452319 267.53881836 668.09179688 C267.55684217 663.9263815 267.55007227 659.76136844 267.53730202 655.59594727 C267.52706428 651.20458007 267.53659721 646.81324377 267.54284668 642.421875 C267.5500921 635.05202143 267.54061753 627.68232901 267.52148438 620.3125 C267.49972162 611.8326933 267.5067752 603.35327151 267.52879 594.87347412 C267.54703313 587.54893741 267.54945908 580.22451551 267.53903532 572.89996338 C267.53284904 568.54457302 267.53182865 564.18936265 267.54518127 559.83398438 C267.55687012 555.7362293 267.5484808 551.63896291 267.52560425 547.54125977 C267.5203858 546.05152186 267.52171049 544.56174168 267.53065491 543.07202148 C267.60287165 529.8049122 265.64864839 516.53398 259.3125 504.6875 C258.79985596 503.70124634 258.79985596 503.70124634 258.27685547 502.69506836 C248.1631077 483.92712364 230.33682729 470.09396218 210 464 C202.49143745 462.10658386 195.2767112 461.67966882 187.5546875 461.6640625 C186.38600128 461.6574057 185.21731506 461.6507489 184.01321411 461.64389038 C181.55081747 461.63381382 179.0883938 461.6290718 176.62597656 461.62939453 C172.90642987 461.62503682 169.1880862 461.58870351 165.46875 461.55078125 C149.60022407 461.47417503 134.91267159 462.06744872 120.625 469.75 Z " fill="#243345" transform="translate(1090,663)"/>
<path d="M0 0 C2.09589663 -0.00322031 4.19179303 -0.00658494 6.28768921 -0.01008606 C10.67015096 -0.01605189 15.05259307 -0.01792864 19.43505859 -0.01733398 C25.00562548 -0.01723264 30.57606413 -0.03086833 36.14660072 -0.04810619 C40.47419799 -0.05931583 44.80176517 -0.06125044 49.12937546 -0.06072426 C51.18073339 -0.06189155 53.23209244 -0.06624152 55.28343582 -0.07405663 C70.70258942 -0.12729315 86.12332122 0.20052349 101.0859375 4.35546875 C101.86839844 4.5676001 102.65085937 4.77973145 103.45703125 4.99829102 C124.46406763 10.96175695 142.72947879 22.22503159 158.5234375 37.16796875 C159.34714844 37.92722656 160.17085937 38.68648437 161.01953125 39.46875 C185.03607778 62.36127719 197.98809 95.76038912 198.86880374 128.66736114 C198.93136404 133.14576728 198.92706861 137.6226031 198.91162109 142.10131836 C198.91569884 144.12090842 198.92104739 146.14049625 198.92755127 148.16007996 C198.94108862 153.58580141 198.93598281 159.01134944 198.92641401 164.43707347 C198.9187452 170.15316739 198.92588295 175.86924782 198.93057251 181.58534241 C198.93600968 191.18021268 198.92889271 200.77501337 198.91455078 210.36987305 C198.89823294 221.41314015 198.90351483 232.45624096 198.92003 243.49950403 C198.93370885 253.03304386 198.9355333 262.56653406 198.92771399 272.10008055 C198.92307185 277.7711999 198.922316 283.44224149 198.93232346 289.11335564 C198.9410845 294.44961137 198.9348071 299.78565585 198.91764069 305.12188911 C198.91372386 307.06308265 198.91472564 309.00429443 198.92142868 310.94548035 C199.04941046 351.82443906 186.3669253 385.03048289 158.1484375 414.85546875 C148.44511472 424.14588418 137.382787 431.00265641 125.5234375 437.16796875 C124.61335938 437.65007812 123.70328125 438.1321875 122.765625 438.62890625 C107.65339942 446.06658467 90.32269272 450.23983987 73.5234375 450.16796875 C73.42639526 448.32912109 73.42639526 448.32912109 73.32739258 446.453125 C71.74694475 417.14293616 69.02376325 388.72121752 62.9765625 359.96875 C62.51823879 357.76466336 62.0599875 355.56056165 61.60180664 353.35644531 C60.70911125 349.06796283 59.78014658 344.78981366 58.82592773 340.51464844 C56.53622474 329.92468617 55.07910762 319.67266297 54.98046875 308.8203125 C54.96465256 307.8150502 54.94883636 306.8097879 54.93254089 305.77406311 C55.08582782 293.12864982 60.29290493 282.77117042 68.6484375 273.48046875 C77.38704844 265.39856704 87.87745035 263.12958629 99.3359375 261.60546875 C114.58022879 259.34896835 127.85357838 256.5135579 140.5234375 247.16796875 C141.37679688 246.53890625 142.23015625 245.90984375 143.109375 245.26171875 C156.01601665 234.06760884 160.2784267 213.08279532 161.73925781 196.75585938 C162.64960448 188.70697127 162.64960448 188.70697127 160.24462891 181.52758789 C158.24739022 179.94991098 157.05803752 179.65038471 154.55078125 179.32421875 C153.74632568 179.21400391 152.94187012 179.10378906 152.11303711 178.99023438 C151.23784424 178.88388672 150.36265137 178.77753906 149.4609375 178.66796875 C148.54642822 178.54615234 147.63191895 178.42433594 146.68969727 178.29882812 C141.39137384 177.60687463 136.08462035 177.00201635 130.7734375 176.41796875 C129.64043213 176.29228516 128.50742676 176.16660156 127.34008789 176.03710938 C125.14753519 175.79759347 122.95402724 175.56660968 120.75952148 175.34570312 C106.91421953 173.86123153 95.51074161 171.50928985 86.2890625 160.54296875 C84.27021228 157.82734722 82.54584384 154.98743028 80.7734375 152.10546875 C74.06767349 141.89880683 64.16431408 137.74262804 52.5234375 135.16796875 C43.16202256 133.35992432 34.04652331 132.81434647 24.5234375 132.85546875 C23.84979156 132.85729156 23.17614563 132.85911438 22.48208618 132.86099243 C-5.13033916 132.98604243 -30.77836706 137.14764152 -51.88916016 155.78662109 C-54.24099576 157.83317382 -56.67108078 159.77845561 -59.1015625 161.73046875 C-75.33556924 174.19752657 -75.33556924 174.19752657 -83.8515625 192.04296875 C-83.45708011 207.98663197 -68.18622333 223.58123086 -57.4765625 234.16796875 C-50.64405351 240.41810255 -43.06878897 246.434562 -33.6640625 247.66796875 C-29.41443591 247.00136066 -27.10091225 245.971146 -24.19921875 242.75 C-12.76661731 227.00845456 -13.90641917 201.01521008 -13.0234375 182.4140625 C-12.98687042 181.68312881 -12.95030334 180.95219513 -12.91262817 180.19911194 C-12.73674657 176.65712138 -12.58308644 173.11719838 -12.47412109 169.57250977 C-12.07681022 160.75012881 -10.59531545 153.06747616 -6.4765625 145.16796875 C-5.8165625 144.83796875 -5.1565625 144.50796875 -4.4765625 144.16796875 C0.07145821 161.23293343 0.82933343 178.53691172 0.8984375 196.10546875 C0.90994843 197.33307419 0.90994843 197.33307419 0.92169189 198.58547974 C1.0819631 219.98114996 -1.60702658 242.11193937 -15.8515625 258.98046875 C-21.09634796 263.3511233 -26.1312109 265.93821953 -33.078125 265.53515625 C-46.9657544 263.40903709 -58.03833277 254.00687804 -67.4765625 244.16796875 C-67.62689941 245.00231445 -67.77723633 245.83666016 -67.93212891 246.69628906 C-70.92304916 263.13165586 -73.94735674 279.35911285 -79.4765625 295.16796875 C-79.69747559 295.80976074 -79.91838867 296.45155273 -80.14599609 297.11279297 C-87.96295205 319.36284584 -100.77509257 338.67250106 -115.37817383 356.97094727 C-120.62154129 363.54735806 -125.54460899 370.35672154 -130.4765625 377.16796875 C-133.4765625 376.16796875 -133.4765625 376.16796875 -134.90625 373.67578125 C-137.80528924 366.89046239 -140.26545934 360.09783103 -142.2265625 352.98046875 C-142.52409424 351.9433374 -142.52409424 351.9433374 -142.82763672 350.88525391 C-146.76743682 335.71584393 -146.77298319 319.6844491 -146.73535156 304.12084961 C-146.73807059 302.19653695 -146.74163657 300.27222534 -146.74597168 298.34791565 C-146.7549891 293.18268109 -146.75159617 288.01752757 -146.74521351 282.85229182 C-146.74009845 277.41019797 -146.74486002 271.9681104 -146.74798584 266.52601624 C-146.7516093 257.39355237 -146.74686884 248.26112102 -146.73730469 239.12866211 C-146.72642003 228.6147962 -146.7299524 218.10100788 -146.7409575 207.58714384 C-146.75007289 198.51053934 -146.75129507 189.43395801 -146.74608016 180.35735041 C-146.74298415 174.95794153 -146.74248524 169.55856897 -146.74915314 164.15916252 C-146.75498838 159.08067812 -146.75081838 154.00229247 -146.73936462 148.92381859 C-146.73675087 147.07531141 -146.73742581 145.22679572 -146.74188995 143.37829208 C-146.77480699 128.34658255 -146.37722853 113.03302674 -142.2265625 98.48046875 C-142.00967773 97.69631592 -141.79279297 96.91216309 -141.56933594 96.10424805 C-136.54338848 78.49734604 -128.64315711 61.9614917 -116.4765625 48.16796875 C-115.79078125 47.36230469 -115.105 46.55664062 -114.3984375 45.7265625 C-91.24825438 19.12050672 -60.31055757 3.4866079 -25.10754395 0.38137817 C-16.75050513 -0.10980331 -8.36869783 0.00303632 0 0 Z " fill="#243346" transform="translate(1600.4765625,1046.83203125)"/>
<path d="M0 0 C43.37328501 -0.06862127 86.74656429 -0.12150597 130.11989285 -0.15319599 C135.23699246 -0.15694824 140.35409196 -0.1608312 145.47119141 -0.16479492 C146.4899418 -0.16558185 147.5086922 -0.16636878 148.55831382 -0.16717956 C165.06790346 -0.18024426 181.57746186 -0.20390394 198.08703294 -0.23145839 C215.01915612 -0.25948302 231.95126289 -0.27617002 248.88340831 -0.28226548 C259.33693718 -0.28638804 269.79037776 -0.29942289 280.24387947 -0.3237494 C287.40589395 -0.33957029 294.56786259 -0.34440866 301.7298933 -0.34050413 C305.8660437 -0.33857688 310.00203949 -0.34159376 314.13816261 -0.35761642 C317.92195246 -0.37216765 321.70548306 -0.37298372 325.4892846 -0.36269668 C327.51241962 -0.36082003 329.5355514 -0.3738016 331.55864263 -0.38724393 C332.75444471 -0.38127078 333.9502468 -0.37529764 335.18228531 -0.36914349 C336.21664349 -0.37028265 337.25100167 -0.37142181 338.31670403 -0.37259549 C341.40102647 0.05568549 342.77188246 0.85808648 345 3 C345.6027832 5.11791992 345.6027832 5.11791992 345.73828125 7.54296875 C345.79322754 8.43290527 345.84817383 9.3228418 345.90478516 10.23974609 C345.9519165 11.60607178 345.9519165 11.60607178 346 13 C346.04906494 14.25611084 346.04906494 14.25611084 346.09912109 15.53759766 C347.40342333 63.14925444 334.53954173 113.55270478 304 151 C303.26265625 151.93972656 302.5253125 152.87945313 301.765625 153.84765625 C295.63129698 161.41788589 288.86473978 168.34554291 282 175.25 C281.08645752 176.17280762 280.17291504 177.09561523 279.23168945 178.04638672 C273.12592717 184.12431864 266.72690327 189.62568765 260 195 C257.8589944 196.79458443 255.74398762 198.61676131 253.625 200.4375 C247.25704994 205.85598464 240.67864603 210.97200845 234 216 C233.26894043 216.55171875 232.53788086 217.1034375 231.78466797 217.671875 C223.40520314 223.99211082 215.00115244 230.27691653 206.53613281 236.48217773 C193.287362 246.19606488 180.42958615 256.25578147 168 267 C167.20722656 267.67933594 166.41445313 268.35867188 165.59765625 269.05859375 C152.72542619 280.34654934 140.33261899 292.46577174 130.23242188 306.32324219 C128.96867374 308.04262059 127.66760194 309.72835158 126.359375 311.4140625 C115.34293882 325.85524453 104.42034983 348.54282096 104 367 C105.28848687 370.15679284 105.96611597 371.48305798 109 373 C112.07379137 373.10840542 115.12553321 373.15492267 118.19998169 373.15821838 C119.1654089 373.16315636 120.1308361 373.16809434 121.12551868 373.17318195 C124.38071507 373.18861643 127.63589165 373.19693363 130.89111328 373.20532227 C133.21650366 373.21489612 135.54189229 373.2249059 137.86727905 373.23532104 C144.19752604 373.2624296 150.52778053 373.28340688 156.85805368 373.30332303 C162.79812729 373.32293692 168.7381809 373.34709659 174.67823754 373.37124526 C186.44579778 373.41893627 198.21336998 373.46219635 209.98095703 373.50268555 C221.41390922 373.5420328 232.84685076 373.58345717 244.27978516 373.62768555 C244.98419067 373.63040982 245.68859618 373.63313409 246.41434731 373.63594092 C249.94804699 373.64962027 253.48174651 373.66334057 257.01544595 373.67708123 C286.34360812 373.7910697 315.67179439 373.89780025 345 374 C344.85955529 376.21120085 344.71402665 378.42207911 344.56640625 380.6328125 C344.48592041 381.86402832 344.40543457 383.09524414 344.32250977 384.36376953 C342.99778895 399.29972098 336.06493828 413.91992846 326 425 C325.35804688 425.73347656 324.71609375 426.46695312 324.0546875 427.22265625 C312.03400933 440.15264772 295.01820788 448.96214038 277.30029428 450.1865679 C274.36683676 450.25861988 271.43925431 450.27150727 268.50492859 450.26069641 C267.38918593 450.26452196 266.27344327 450.26834751 265.12389022 450.27228898 C261.40765866 450.28255851 257.69158334 450.2786384 253.9753418 450.2746582 C251.30220533 450.27900784 248.6290801 450.28412772 245.95594788 450.29014587 C239.46384146 450.30285675 232.97177647 450.30469134 226.4796597 450.30234561 C221.20390656 450.30055936 215.92816596 450.30231864 210.65241432 450.30657005 C209.90031458 450.30716524 209.14821483 450.30776043 208.37332419 450.30837366 C206.84530418 450.30958544 205.31728418 450.31079957 203.78926418 450.31201603 C189.48131716 450.32287623 175.17339375 450.32073544 160.86544541 450.31463119 C147.77471327 450.3094552 134.68405537 450.32073813 121.59333792 450.33972941 C108.14245254 450.35909342 94.69160233 450.36736686 81.24070293 450.36360615 C73.69253995 450.36169297 66.14444029 450.36419368 58.59628868 450.37832069 C52.17555602 450.39021665 45.75492573 450.391659 39.3341917 450.37953053 C36.05856944 450.37363113 32.78317384 450.3741914 29.50755692 450.38453293 C25.95824686 450.394933 22.40944455 450.3869538 18.8601532 450.3742218 C17.82320067 450.38159609 16.78624813 450.38897037 15.7178728 450.39656812 C7.0195957 450.33067265 7.0195957 450.33067265 3 447 C-1.11658163 442.39203728 -0.43275075 436.85365662 -0.3984375 431.015625 C-0.40130768 429.92779724 -0.40417786 428.83996948 -0.40713501 427.71917725 C-0.40917721 425.40587853 -0.40363651 423.0925626 -0.39111328 420.77929688 C-0.37537259 417.33160759 -0.39079302 413.88514765 -0.41015625 410.4375 C-0.42985482 390.8590544 0.84702609 371.15332873 5.75 352.125 C6.00676514 351.09874512 6.26353027 350.07249023 6.52807617 349.01513672 C18.11225793 304.2043861 45.20436457 265.02615966 82 237 C83.58100478 235.7763977 85.16170368 234.55240013 86.7421875 233.328125 C95.58955471 226.50579277 104.51935954 219.8367045 113.67944336 213.44042969 C145.50155379 191.20066533 177.92484157 166.77212152 202 136 C202.90334195 134.90644542 203.80977474 133.81543911 204.71875 132.7265625 C215.66485252 119.51669416 225.01614592 105.17439327 233.875 90.5 C234.29797363 89.81244629 234.72094727 89.12489258 235.15673828 88.41650391 C237.27616589 84.82041852 238.53439305 82.2103695 238 78 C235.09913858 76.54956929 232.5793102 76.87197002 229.33737183 76.86869812 C228.64458102 76.86658241 227.95179022 76.86446669 227.23800576 76.86228687 C224.90458583 76.85627121 222.57121974 76.85728817 220.23779297 76.8581543 C218.56889758 76.85512352 216.90000302 76.8516023 215.23110962 76.84762573 C211.62870059 76.83972495 208.02630151 76.83458715 204.42388535 76.83133507 C198.71486131 76.8254239 193.00589961 76.80887855 187.29690552 76.78999329 C185.34110073 76.78365513 183.38529591 76.77732952 181.42949104 76.77101612 C180.44967081 76.76785031 179.46985058 76.7646845 178.46033883 76.76142275 C165.16806933 76.71940204 151.8758275 76.68642288 138.58349609 76.67407227 C129.621502 76.66565958 120.65966103 76.64304393 111.69774354 76.6047166 C106.95985039 76.58504993 102.22218565 76.57251959 97.48424911 76.57755089 C93.01405515 76.58223927 88.54429173 76.56816635 84.07418442 76.54053879 C82.44578465 76.53369457 80.81733969 76.53342615 79.18894196 76.54073906 C55.63547663 76.63571051 36.96817138 69.32206326 19.828125 52.921875 C7.67048774 40.19876624 -0.11895866 21.92971637 -0.02319336 4.27563477 C-0.01984482 3.472715 -0.01649628 2.66979523 -0.01304626 1.84254456 C-0.008741 1.23450485 -0.00443573 0.62646515 0 0 Z " fill="#243346" transform="translate(361,1047)"/>
<path d="M0 0 C2.25148642 0.14876597 4.50274717 0.30095007 6.75390625 0.45458984 C8.0076001 0.53897308 9.26129395 0.62335632 10.55297852 0.71029663 C26.08448061 2.01563473 40.55415543 9.71113611 52 20 C52.61101563 20.51820312 53.22203125 21.03640625 53.8515625 21.5703125 C67.19975472 33.69949173 74.89649318 52.65145817 76.17016792 70.36684489 C76.44584128 76.79034228 76.4055351 83.21630275 76.38476562 89.64428711 C76.38887902 91.78800239 76.39434441 93.93171544 76.40104675 96.07542419 C76.41270487 100.66365531 76.41528013 105.25176636 76.41069031 109.84000969 C76.40383675 117.10853499 76.41982348 124.37690448 76.43908691 131.645401 C76.47682232 147.07609236 76.48972385 162.50676958 76.5 177.9375 C76.5110966 194.59750378 76.52657067 211.25743482 76.57071257 227.91738898 C76.5889739 235.12934017 76.59299543 242.34111079 76.58577728 249.55307949 C76.58424617 254.0542108 76.5950971 258.55525323 76.60915565 263.05636024 C76.61312869 265.12823525 76.61208452 267.20012757 76.60538292 269.27199554 C76.52273545 296.97094486 82.95581811 322.09867271 102 343 C102.62390625 343.70511719 103.2478125 344.41023438 103.890625 345.13671875 C119.84466374 362.19681479 143.69147559 372.18706344 166.7890625 373.2578125 C192.33179498 374.02290644 215.93037258 366.49195081 235.3125 349.5625 C236.89383737 348.06126305 238.45688096 346.54049469 240 345 C240.75796875 344.25363281 241.5159375 343.50726562 242.296875 342.73828125 C262.09239743 322.08950355 267.47354903 296.04221078 267.38476562 268.36157227 C267.38887811 266.20652989 267.39434296 264.05148973 267.40104675 261.89645386 C267.41271264 257.28091989 267.41527731 252.66550531 267.41069031 248.04995918 C267.40384233 240.73978273 267.41981406 233.42976146 267.43908691 226.11961365 C267.47683776 210.60058405 267.48972628 195.08156846 267.5 179.5625 C267.51109358 162.80770137 267.52655079 146.05297506 267.57071257 129.29822582 C267.5889861 122.04334673 267.59299098 114.78864718 267.58577728 107.53375065 C267.58424732 103.00753849 267.59508996 98.48141488 267.60915565 93.9552269 C267.61313234 91.87003223 267.61207812 89.78482036 267.60538292 87.69963264 C267.52877895 61.83872784 272.67269374 39.86251102 291.1796875 20.7265625 C303.61202533 8.70748798 320.08132023 1.60317274 337.25048828 0.45239258 C339.14530441 0.32348381 339.14530441 0.32348381 341.07839966 0.19197083 C342.04252777 0.12862045 343.00665588 0.06527008 344 0 C344.06878708 37.64001153 344.12159004 75.28001353 344.15319599 112.92007529 C344.15694775 117.37192855 344.16083075 121.82378169 344.16479492 126.27563477 C344.16558185 127.16185407 344.16636878 128.04807337 344.16717956 128.96114781 C344.18020495 143.27815402 344.20384285 157.5951238 344.23145839 171.91210846 C344.25959263 186.62156935 344.27619315 201.33101127 344.28226548 216.04049796 C344.28636536 225.10438639 344.29927638 234.16817181 344.3237494 243.23202851 C344.33970579 249.46205412 344.34437816 255.69202709 344.34050413 261.92207161 C344.33859785 265.50719263 344.34135179 269.09213467 344.35761642 272.67722321 C344.43862788 291.46503429 343.71492341 309.43970477 338.3125 327.5625 C338.05976318 328.42617187 337.80702637 329.28984375 337.54663086 330.1796875 C334.81666343 339.14664994 331.14297438 347.60469982 327 356 C326.4225 357.17175781 325.845 358.34351563 325.25 359.55078125 C318.94151462 371.74426573 310.8967454 382.57809825 302 393 C301.319375 393.804375 300.63875 394.60875 299.9375 395.4375 C295.62419995 400.42475318 291.10078157 404.82816871 286 409 C285.01515625 409.82242187 284.0303125 410.64484375 283.015625 411.4921875 C251.66338341 437.22018968 213.66867846 450.21878008 173.25 450.25 C172.4672168 450.25067474 171.68443359 450.25134949 170.87792969 450.25204468 C158.69007072 450.23536308 146.9297847 449.69744093 135 447 C134.20255371 446.82307617 133.40510742 446.64615234 132.58349609 446.46386719 C101.20291161 439.30352889 74.43353501 423.85167943 51 402 C50.20980469 401.27554687 49.41960938 400.55109375 48.60546875 399.8046875 C18.89379747 371.48500082 0.97818068 329.40105939 -0.26817894 288.47937775 C-0.39210168 281.56583058 -0.37994192 274.6527752 -0.34819686 267.7385056 C-0.33504389 264.1328264 -0.33963932 260.52715951 -0.34190369 256.92146301 C-0.34346446 250.69846936 -0.33418188 244.47557125 -0.31719017 238.25260162 C-0.29264032 229.25563487 -0.28497871 220.25871355 -0.2812262 211.26171693 C-0.27468654 196.65898964 -0.25479347 182.05631308 -0.22631836 167.45361328 C-0.198713 153.28206635 -0.17751127 139.11053329 -0.16479492 124.93896484 C-0.16400675 124.06305562 -0.16321858 123.18714639 -0.16240653 122.28469446 C-0.15849096 117.88980622 -0.15469994 113.49491788 -0.15097082 109.10002947 C-0.11995247 72.73331719 -0.06718515 36.36666257 0 0 Z " fill="#243346" transform="translate(726,1047)"/>
<path d="M0 0 C0.86409988 -0.0033284 1.72819977 -0.0066568 2.6184845 -0.01008606 C4.43616205 -0.0151155 6.2538487 -0.01749563 8.0715332 -0.01733398 C10.80761482 -0.01951182 13.54328676 -0.03768671 16.27929688 -0.05664062 C42.51814595 -0.14301043 65.59708806 5.14680951 84.73828125 24.1015625 C102.78234705 42.74748672 107.79846989 65.27723123 107.78979492 90.36987305 C107.79279243 91.78689156 107.79619631 93.20390926 107.79997253 94.6209259 C107.80875779 98.44766162 107.81114836 102.27437493 107.81178832 106.10111976 C107.81250208 108.49918137 107.81464257 110.8972374 107.81728554 113.29529762 C107.82652175 121.6821389 107.8306227 130.06896435 107.82983398 138.45581055 C107.82923407 146.23956298 107.83977343 154.02324592 107.85557765 161.80698079 C107.86871062 168.51730759 107.87401546 175.22761185 107.87337857 181.93795139 C107.87312522 185.9334027 107.8758855 189.92879221 107.88655663 193.92423058 C107.89633479 197.68768905 107.89625126 201.45102787 107.88903999 205.21449089 C107.8875185 207.22990381 107.89577296 209.24531698 107.90447998 211.26071167 C107.82004526 236.11523223 101.06604505 258.13377174 83.64453125 276.16796875 C67.62498451 291.31516394 47.83913618 298.25661219 26.0625 298.40625 C24.93491776 298.41432175 23.80733551 298.42239349 22.64558411 298.43070984 C20.2576347 298.44451992 17.8696658 298.45525578 15.48168945 298.46313477 C13.06821809 298.4745975 10.65477091 298.49495737 8.24145508 298.5246582 C-20.00813537 298.8718382 -42.6651606 293.87457647 -63.65625 273.98828125 C-80.49117051 256.1399966 -85.85774786 233.57148777 -85.74365234 209.74414062 C-85.74773283 208.28007113 -85.75308286 206.81600472 -85.75958252 205.35194397 C-85.77308685 201.42830955 -85.76802857 197.50491568 -85.75844526 193.58127785 C-85.75075982 189.44215959 -85.75791859 185.30305964 -85.76260376 181.16394043 C-85.76803579 174.21781786 -85.76093727 167.2717915 -85.74658203 160.32568359 C-85.73026046 152.33671401 -85.73555078 144.34797425 -85.75206125 136.35901022 C-85.76574943 129.45486556 -85.76756022 122.5507894 -85.75974524 115.64663553 C-85.75510872 111.54278208 -85.75433125 107.43903604 -85.76435471 103.33518982 C-85.77312989 99.47389094 -85.76681393 95.61288347 -85.74967194 91.75161552 C-85.7457626 90.3489524 -85.74674343 88.94626401 -85.75345993 87.54361153 C-85.85767626 63.53432873 -79.19474783 41.35012056 -62.16015625 23.91796875 C-44.95992444 7.05311751 -23.83464475 0.03288933 0 0 Z M-40.73046875 9.91796875 C-41.38982422 10.26085938 -42.04917969 10.60375 -42.72851562 10.95703125 C-48.49574928 14.05247106 -53.52405786 17.7471841 -58.35546875 22.16796875 C-59.03738281 22.75835938 -59.71929688 23.34875 -60.421875 23.95703125 C-75.8357594 38.1341852 -82.9991695 58.73892117 -84.35546875 79.16796875 C-84.49403847 83.81445843 -84.5024126 88.45786839 -84.50073242 93.10620117 C-84.50373221 94.47100922 -84.50713659 95.83581643 -84.51091003 97.20062256 C-84.51967175 100.87655269 -84.52208484 104.55245947 -84.52272582 108.22839904 C-84.52344089 110.53435677 -84.52558379 112.84030874 -84.52822304 115.14626503 C-84.53745117 123.21771236 -84.54156118 131.28914327 -84.54077148 139.3605957 C-84.54017166 146.84101937 -84.55071139 154.32137072 -84.56651515 161.80177611 C-84.57966475 168.25994741 -84.58495228 174.71809529 -84.58431607 181.17627984 C-84.58406322 185.01750607 -84.58679503 188.85866792 -84.59749413 192.6998806 C-84.67028014 220.82089044 -84.45666033 246.55391435 -65.35546875 269.16796875 C-64.68451172 270.05548828 -64.68451172 270.05548828 -64 270.9609375 C-52.72836068 285.40582425 -33.94305234 293.62094887 -16.30444336 296.70068359 C-11.4908172 297.27028362 -6.76088101 297.34931138 -1.91796875 297.37109375 C-0.92023438 297.37679382 0.0775 297.3824939 1.10546875 297.3883667 C3.21336825 297.39778284 5.32128224 297.40433716 7.42919922 297.40820312 C10.60671721 297.4178539 13.78357246 297.44888755 16.9609375 297.48046875 C42.61394309 297.61569975 64.57803878 292.3588271 83.45703125 273.85546875 C88.76025721 268.46755899 93.07468887 262.86511107 96.64453125 256.16796875 C97.10214844 255.32105469 97.55976562 254.47414063 98.03125 253.6015625 C104.47835238 240.6105544 106.24800585 227.22429144 106.16210938 212.91796875 C106.16754852 211.36522776 106.17468109 209.81249194 106.18334961 208.25976562 C106.20137342 204.09435025 106.19460352 199.92933719 106.18183327 195.76391602 C106.17159553 191.37254882 106.18112846 186.98121252 106.18737793 182.58984375 C106.19462335 175.21999018 106.18514878 167.85029776 106.16601562 160.48046875 C106.14425287 152.00066205 106.15130645 143.52124026 106.17332125 135.04144287 C106.19156438 127.71690616 106.19399033 120.39248426 106.18356657 113.06793213 C106.17738029 108.71254177 106.1763599 104.3573314 106.18971252 100.00195312 C106.20140137 95.90419805 106.19301205 91.80693166 106.1701355 87.70922852 C106.16491705 86.21949061 106.16624174 84.72971043 106.17518616 83.23999023 C106.2474029 69.97288095 104.29317964 56.70194875 97.95703125 44.85546875 C97.44438721 43.86921509 97.44438721 43.86921509 96.92138672 42.86303711 C86.80763895 24.09509239 68.98135854 10.26193093 48.64453125 4.16796875 C41.1359687 2.27455261 33.92124245 1.84763757 26.19921875 1.83203125 C25.03053253 1.82537445 23.86184631 1.81871765 22.65774536 1.81185913 C20.19534872 1.80178257 17.73292505 1.79704055 15.27050781 1.79736328 C11.55096112 1.79300557 7.83261745 1.75667226 4.11328125 1.71875 C-11.75524468 1.64214378 -26.44279716 2.23541747 -40.73046875 9.91796875 Z " fill="#000000" transform="translate(1251.35546875,1122.83203125)"/>
<path d="M0 0 C2 1.625 2 1.625 3 4 C2.87177883 7.14141856 2.4995896 9.21117432 0.8125 11.875 C-1.97669273 13.60622307 -3.79146522 13.52384241 -7 13 C-9.4375 10.875 -9.4375 10.875 -11 8 C-10.9375 4.8125 -10.9375 4.8125 -10 2 C-6.29584707 -0.46943529 -4.37855495 -0.46913089 0 0 Z " fill="#243346" transform="translate(1670,1208)"/>
</svg>
